<?xml version="1.0" encoding="UTF-8" standalone="no"?><svg xmlns="http://www.w3.org/2000/svg" xmlns:xlink="http://www.w3.org/1999/xlink" contentScriptType="application/ecmascript" contentStyleType="text/css" height="384px" preserveAspectRatio="none" style="width:596px;height:384px;" version="1.1" viewBox="0 0 596 384" width="596px" zoomAndPan="magnify"><defs><filter height="300%" id="fe3jp5e8372cv" width="300%" x="-1" y="-1"><feGaussianBlur result="blurOut" stdDeviation="2.0"/><feColorMatrix in="blurOut" result="blurOut2" type="matrix" values="0 0 0 0 0 0 0 0 0 0 0 0 0 0 0 0 0 0 .4 0"/><feOffset dx="4.0" dy="4.0" in="blurOut2" result="blurOut3"/><feBlend in="SourceGraphic" in2="blurOut3" mode="normal"/></filter></defs><g><!--MD5=[ecaed46f78f8cfe1e9ce18477649be18]
class Plataforma--><rect codeLine="5" fill="#FEFECE" filter="url(#fe3jp5e8372cv)" height="78.4141" id="Plataforma" style="stroke:#A80036;stroke-width:1.5;" width="118" x="7" y="146.5"/><ellipse cx="32.8" cy="162.5" fill="#ADD1B2" rx="11" ry="11" style="stroke:#A80036;stroke-width:1.0;"/><path d="M35.1438,158.1719 C34.2063,157.7344 33.6125,157.5938 32.7375,157.5938 C30.1125,157.5938 28.1125,159.6719 28.1125,162.3906 L28.1125,163.5156 C28.1125,166.0938 30.2219,167.9844 33.1125,167.9844 C34.3313,167.9844 35.4875,167.6875 36.2375,167.1406 C36.8156,166.7344 37.1438,166.2813 37.1438,165.8906 C37.1438,165.4375 36.7531,165.0469 36.2844,165.0469 C36.0656,165.0469 35.8625,165.125 35.675,165.3125 C35.2219,165.7969 35.2219,165.7969 35.0344,165.8906 C34.6125,166.1563 33.925,166.2813 33.1594,166.2813 C31.1125,166.2813 29.8156,165.1875 29.8156,163.4844 L29.8156,162.3906 C29.8156,160.6094 31.0656,159.2969 32.8,159.2969 C33.3781,159.2969 33.9875,159.4531 34.4563,159.7031 C34.9406,159.9844 35.1125,160.2031 35.2063,160.6094 C35.2688,161.0156 35.3,161.1406 35.4406,161.2656 C35.5813,161.4063 35.8156,161.5156 36.0344,161.5156 C36.3,161.5156 36.5656,161.375 36.7375,161.1563 C36.8469,161 36.8781,160.8125 36.8781,160.3906 L36.8781,158.9688 C36.8781,158.5313 36.8625,158.4063 36.7688,158.25 C36.6125,157.9844 36.3313,157.8438 36.0344,157.8438 C35.7375,157.8438 35.5344,157.9375 35.3156,158.25 L35.1438,158.1719 Z " fill="#000000"/><text fill="#000000" font-family="sans-serif" font-size="12" lengthAdjust="spacingAndGlyphs" textLength="62" x="49.2" y="166.6543">Plataforma</text><line style="stroke:#A80036;stroke-width:1.5;" x1="8" x2="124" y1="178.5" y2="178.5"/><text fill="#000000" font-family="sans-serif" font-size="11" lengthAdjust="spacingAndGlyphs" textLength="78" x="13" y="192.7104">-list touristList</text><text fill="#000000" font-family="sans-serif" font-size="11" lengthAdjust="spacingAndGlyphs" textLength="102" x="13" y="205.5151">-list employeeList</text><text fill="#000000" font-family="sans-serif" font-size="11" lengthAdjust="spacingAndGlyphs" textLength="106" x="13" y="218.3198">-list destinationList</text><!--MD5=[f1bd6dbd8d4081205adc0601a16f1a8e]
class Tourist--><rect codeLine="11" fill="#FEFECE" filter="url(#fe3jp5e8372cv)" height="91.2188" id="Tourist" style="stroke:#A80036;stroke-width:1.5;" width="110" x="231.5" y="7"/><ellipse cx="263.15" cy="23" fill="#ADD1B2" rx="11" ry="11" style="stroke:#A80036;stroke-width:1.0;"/><path d="M265.4938,18.6719 C264.5563,18.2344 263.9625,18.0938 263.0875,18.0938 C260.4625,18.0938 258.4625,20.1719 258.4625,22.8906 L258.4625,24.0156 C258.4625,26.5938 260.5719,28.4844 263.4625,28.4844 C264.6813,28.4844 265.8375,28.1875 266.5875,27.6406 C267.1656,27.2344 267.4938,26.7813 267.4938,26.3906 C267.4938,25.9375 267.1031,25.5469 266.6344,25.5469 C266.4156,25.5469 266.2125,25.625 266.025,25.8125 C265.5719,26.2969 265.5719,26.2969 265.3844,26.3906 C264.9625,26.6563 264.275,26.7813 263.5094,26.7813 C261.4625,26.7813 260.1656,25.6875 260.1656,23.9844 L260.1656,22.8906 C260.1656,21.1094 261.4156,19.7969 263.15,19.7969 C263.7281,19.7969 264.3375,19.9531 264.8063,20.2031 C265.2906,20.4844 265.4625,20.7031 265.5563,21.1094 C265.6188,21.5156 265.65,21.6406 265.7906,21.7656 C265.9313,21.9063 266.1656,22.0156 266.3844,22.0156 C266.65,22.0156 266.9156,21.875 267.0875,21.6563 C267.1969,21.5 267.2281,21.3125 267.2281,20.8906 L267.2281,19.4688 C267.2281,19.0313 267.2125,18.9063 267.1188,18.75 C266.9625,18.4844 266.6813,18.3438 266.3844,18.3438 C266.0875,18.3438 265.8844,18.4375 265.6656,18.75 L265.4938,18.6719 Z " fill="#000000"/><text fill="#000000" font-family="sans-serif" font-size="12" lengthAdjust="spacingAndGlyphs" textLength="41" x="280.85" y="27.1543">Tourist</text><line style="stroke:#A80036;stroke-width:1.5;" x1="232.5" x2="340.5" y1="39" y2="39"/><text fill="#000000" font-family="sans-serif" font-size="11" lengthAdjust="spacingAndGlyphs" textLength="81" x="237.5" y="53.2104">-string emailId</text><text fill="#000000" font-family="sans-serif" font-size="11" lengthAdjust="spacingAndGlyphs" textLength="72" x="237.5" y="66.0151">-string name</text><text fill="#000000" font-family="sans-serif" font-size="11" lengthAdjust="spacingAndGlyphs" textLength="98" x="237.5" y="78.8198">-string nationality</text><text fill="#000000" font-family="sans-serif" font-size="11" lengthAdjust="spacingAndGlyphs" textLength="92" x="237.5" y="91.6245">-string birthDate</text><!--MD5=[7421f545a0d8420c5bec41e74b387d9c]
class Employee--><rect codeLine="18" fill="#FEFECE" filter="url(#fe3jp5e8372cv)" height="104.0234" id="Employee" style="stroke:#A80036;stroke-width:1.5;" width="125" x="224" y="133.5"/><ellipse cx="253.85" cy="149.5" fill="#ADD1B2" rx="11" ry="11" style="stroke:#A80036;stroke-width:1.0;"/><path d="M256.1938,145.1719 C255.2563,144.7344 254.6625,144.5938 253.7875,144.5938 C251.1625,144.5938 249.1625,146.6719 249.1625,149.3906 L249.1625,150.5156 C249.1625,153.0938 251.2719,154.9844 254.1625,154.9844 C255.3813,154.9844 256.5375,154.6875 257.2875,154.1406 C257.8656,153.7344 258.1938,153.2813 258.1938,152.8906 C258.1938,152.4375 257.8031,152.0469 257.3344,152.0469 C257.1156,152.0469 256.9125,152.125 256.725,152.3125 C256.2719,152.7969 256.2719,152.7969 256.0844,152.8906 C255.6625,153.1563 254.975,153.2813 254.2094,153.2813 C252.1625,153.2813 250.8656,152.1875 250.8656,150.4844 L250.8656,149.3906 C250.8656,147.6094 252.1156,146.2969 253.85,146.2969 C254.4281,146.2969 255.0375,146.4531 255.5063,146.7031 C255.9906,146.9844 256.1625,147.2031 256.2563,147.6094 C256.3188,148.0156 256.35,148.1406 256.4906,148.2656 C256.6313,148.4063 256.8656,148.5156 257.0844,148.5156 C257.35,148.5156 257.6156,148.375 257.7875,148.1563 C257.8969,148 257.9281,147.8125 257.9281,147.3906 L257.9281,145.9688 C257.9281,145.5313 257.9125,145.4063 257.8188,145.25 C257.6625,144.9844 257.3813,144.8438 257.0844,144.8438 C256.7875,144.8438 256.5844,144.9375 256.3656,145.25 L256.1938,145.1719 Z " fill="#000000"/><text fill="#000000" font-family="sans-serif" font-size="12" lengthAdjust="spacingAndGlyphs" textLength="60" x="271.15" y="153.6543">Employee</text><line style="stroke:#A80036;stroke-width:1.5;" x1="225" x2="348" y1="165.5" y2="165.5"/><text fill="#000000" font-family="sans-serif" font-size="11" lengthAdjust="spacingAndGlyphs" textLength="56" x="230" y="179.7104">-long nifId</text><text fill="#000000" font-family="sans-serif" font-size="11" lengthAdjust="spacingAndGlyphs" textLength="72" x="230" y="192.5151">-string name</text><text fill="#000000" font-family="sans-serif" font-size="11" lengthAdjust="spacingAndGlyphs" textLength="84" x="230" y="205.3198">-string address</text><text fill="#000000" font-family="sans-serif" font-size="11" lengthAdjust="spacingAndGlyphs" textLength="71" x="230" y="218.1245">-string email</text><text fill="#000000" font-family="sans-serif" font-size="11" lengthAdjust="spacingAndGlyphs" textLength="113" x="230" y="230.9292">-long phoneNumber</text><!--MD5=[18a836c23c0e4d04592ec32f5657da5f]
class Destination--><rect codeLine="26" fill="#FEFECE" filter="url(#fe3jp5e8372cv)" height="91.2188" id="Destination" style="stroke:#A80036;stroke-width:1.5;" width="127" x="223" y="273"/><ellipse cx="250.6" cy="289" fill="#ADD1B2" rx="11" ry="11" style="stroke:#A80036;stroke-width:1.0;"/><path d="M252.9438,284.6719 C252.0063,284.2344 251.4125,284.0938 250.5375,284.0938 C247.9125,284.0938 245.9125,286.1719 245.9125,288.8906 L245.9125,290.0156 C245.9125,292.5938 248.0219,294.4844 250.9125,294.4844 C252.1313,294.4844 253.2875,294.1875 254.0375,293.6406 C254.6156,293.2344 254.9438,292.7813 254.9438,292.3906 C254.9438,291.9375 254.5531,291.5469 254.0844,291.5469 C253.8656,291.5469 253.6625,291.625 253.475,291.8125 C253.0219,292.2969 253.0219,292.2969 252.8344,292.3906 C252.4125,292.6563 251.725,292.7813 250.9594,292.7813 C248.9125,292.7813 247.6156,291.6875 247.6156,289.9844 L247.6156,288.8906 C247.6156,287.1094 248.8656,285.7969 250.6,285.7969 C251.1781,285.7969 251.7875,285.9531 252.2563,286.2031 C252.7406,286.4844 252.9125,286.7031 253.0063,287.1094 C253.0688,287.5156 253.1,287.6406 253.2406,287.7656 C253.3813,287.9063 253.6156,288.0156 253.8344,288.0156 C254.1,288.0156 254.3656,287.875 254.5375,287.6563 C254.6469,287.5 254.6781,287.3125 254.6781,286.8906 L254.6781,285.4688 C254.6781,285.0313 254.6625,284.9063 254.5688,284.75 C254.4125,284.4844 254.1313,284.3438 253.8344,284.3438 C253.5375,284.3438 253.3344,284.4375 253.1156,284.75 L252.9438,284.6719 Z " fill="#000000"/><text fill="#000000" font-family="sans-serif" font-size="12" lengthAdjust="spacingAndGlyphs" textLength="67" x="267.4" y="293.1543">Destination</text><line style="stroke:#A80036;stroke-width:1.5;" x1="224" x2="349" y1="305" y2="305"/><text fill="#000000" font-family="sans-serif" font-size="11" lengthAdjust="spacingAndGlyphs" textLength="95" x="229" y="319.2104">-int destinationId</text><text fill="#000000" font-family="sans-serif" font-size="11" lengthAdjust="spacingAndGlyphs" textLength="115" x="229" y="332.0151">-string countryName</text><text fill="#000000" font-family="sans-serif" font-size="11" lengthAdjust="spacingAndGlyphs" textLength="93" x="229" y="344.8198">-string cityName</text><text fill="#000000" font-family="sans-serif" font-size="11" lengthAdjust="spacingAndGlyphs" textLength="77" x="229" y="357.6245">-list reportList</text><!--MD5=[f00dbe8c0302c6aec2cb26b3c659c8fc]
class Report--><rect codeLine="33" fill="#FEFECE" filter="url(#fe3jp5e8372cv)" height="104.0234" id="Report" style="stroke:#A80036;stroke-width:1.5;" width="134" x="448" y="266.5"/><ellipse cx="490.9" cy="282.5" fill="#ADD1B2" rx="11" ry="11" style="stroke:#A80036;stroke-width:1.0;"/><path d="M493.2438,278.1719 C492.3063,277.7344 491.7125,277.5938 490.8375,277.5938 C488.2125,277.5938 486.2125,279.6719 486.2125,282.3906 L486.2125,283.5156 C486.2125,286.0938 488.3219,287.9844 491.2125,287.9844 C492.4313,287.9844 493.5875,287.6875 494.3375,287.1406 C494.9156,286.7344 495.2438,286.2813 495.2438,285.8906 C495.2438,285.4375 494.8531,285.0469 494.3844,285.0469 C494.1656,285.0469 493.9625,285.125 493.775,285.3125 C493.3219,285.7969 493.3219,285.7969 493.1344,285.8906 C492.7125,286.1563 492.025,286.2813 491.2594,286.2813 C489.2125,286.2813 487.9156,285.1875 487.9156,283.4844 L487.9156,282.3906 C487.9156,280.6094 489.1656,279.2969 490.9,279.2969 C491.4781,279.2969 492.0875,279.4531 492.5563,279.7031 C493.0406,279.9844 493.2125,280.2031 493.3063,280.6094 C493.3688,281.0156 493.4,281.1406 493.5406,281.2656 C493.6813,281.4063 493.9156,281.5156 494.1344,281.5156 C494.4,281.5156 494.6656,281.375 494.8375,281.1563 C494.9469,281 494.9781,280.8125 494.9781,280.3906 L494.9781,278.9688 C494.9781,278.5313 494.9625,278.4063 494.8688,278.25 C494.7125,277.9844 494.4313,277.8438 494.1344,277.8438 C493.8375,277.8438 493.6344,277.9375 493.4156,278.25 L493.2438,278.1719 Z " fill="#000000"/><text fill="#000000" font-family="sans-serif" font-size="12" lengthAdjust="spacingAndGlyphs" textLength="40" x="511.1" y="286.6543">Report</text><line style="stroke:#A80036;stroke-width:1.5;" x1="449" x2="581" y1="298.5" y2="298.5"/><text fill="#000000" font-family="sans-serif" font-size="11" lengthAdjust="spacingAndGlyphs" textLength="66" x="454" y="312.7104">-int reportId</text><text fill="#000000" font-family="sans-serif" font-size="11" lengthAdjust="spacingAndGlyphs" textLength="113" x="454" y="325.5151">-string creationDate</text><text fill="#000000" font-family="sans-serif" font-size="11" lengthAdjust="spacingAndGlyphs" textLength="122" x="454" y="338.3198">-string infectionName</text><text fill="#000000" font-family="sans-serif" font-size="11" lengthAdjust="spacingAndGlyphs" textLength="95" x="454" y="351.1245">-int infectedNum</text><text fill="#000000" font-family="sans-serif" font-size="11" lengthAdjust="spacingAndGlyphs" textLength="102" x="454" y="363.9292">-string omsAdvice</text><!--MD5=[d94255862ff80588cee1493ea501a415]
link Plataforma to Tourist--><path codeLine="42" d="M125.267,150.033 C158.136,130.026 198.943,105.187 231.149,85.583 " fill="none" id="Plataforma-Tourist" style="stroke:#A80036;stroke-width:1.0;"/><polygon fill="#000000" points="164.271,100.4667,155.0166,102.6592,158.0728,107.6801,164.271,100.4667" style="stroke:#000000;stroke-width:1.0;"/><text fill="#000000" font-family="sans-serif" font-size="13" lengthAdjust="spacingAndGlyphs" textLength="23" x="169" y="107.5669">has</text><text fill="#000000" font-family="sans-serif" font-size="13" lengthAdjust="spacingAndGlyphs" textLength="8" x="132.9777" y="158.6743">1</text><text fill="#000000" font-family="sans-serif" font-size="13" lengthAdjust="spacingAndGlyphs" textLength="27" x="196.6184" y="102.084">0...*</text><!--MD5=[8e2e3c19275dcc4f2e990c61142f177a]
link Plataforma to Employee--><path codeLine="43" d="M125.267,185.5 C155.734,185.5 193.021,185.5 223.957,185.5 " fill="none" id="Plataforma-Employee" style="stroke:#A80036;stroke-width:1.0;"/><polygon fill="#000000" points="165,177.0664,155.9549,174.1275,155.9549,180.0053,165,177.0664" style="stroke:#000000;stroke-width:1.0;"/><text fill="#000000" font-family="sans-serif" font-size="13" lengthAdjust="spacingAndGlyphs" textLength="23" x="169" y="181.5669">has</text><text fill="#000000" font-family="sans-serif" font-size="13" lengthAdjust="spacingAndGlyphs" textLength="8" x="132.9777" y="198.4638">1</text><text fill="#000000" font-family="sans-serif" font-size="13" lengthAdjust="spacingAndGlyphs" textLength="27" x="189.1151" y="198.346">1...*</text><!--MD5=[634ac03ec8cb57f5f6f850053b3952ad]
link Plataforma to Destination--><path codeLine="44" d="M125.267,220.967 C155.355,239.281 192.094,261.644 222.799,280.334 " fill="none" id="Plataforma-Destination" style="stroke:#A80036;stroke-width:1.0;"/><polygon fill="#000000" points="164.271,233.6661,158.0728,226.4528,155.0166,231.4736,164.271,233.6661" style="stroke:#000000;stroke-width:1.0;"/><text fill="#000000" font-family="sans-serif" font-size="13" lengthAdjust="spacingAndGlyphs" textLength="23" x="169" y="235.5669">has</text><text fill="#000000" font-family="sans-serif" font-size="13" lengthAdjust="spacingAndGlyphs" textLength="8" x="132.9777" y="238.2534">1</text><text fill="#000000" font-family="sans-serif" font-size="13" lengthAdjust="spacingAndGlyphs" textLength="27" x="187.8376" y="289.234">1...*</text><!--MD5=[501099daf9f7c8862dd85d1d308b714b]
link Destination to Report--><path codeLine="46" d="M350.292,318.5 C380.666,318.5 417.126,318.5 447.921,318.5 " fill="none" id="Destination-Report" style="stroke:#A80036;stroke-width:1.0;"/><polygon fill="#000000" points="390,310.0664,380.9549,307.1275,380.9549,313.0053,390,310.0664" style="stroke:#000000;stroke-width:1.0;"/><text fill="#000000" font-family="sans-serif" font-size="13" lengthAdjust="spacingAndGlyphs" textLength="23" x="394" y="314.5669">has</text><text fill="#000000" font-family="sans-serif" font-size="13" lengthAdjust="spacingAndGlyphs" textLength="8" x="358.1305" y="331.4291">1</text><text fill="#000000" font-family="sans-serif" font-size="13" lengthAdjust="spacingAndGlyphs" textLength="23" x="416.8175" y="331.346">0..*</text><!--MD5=[3698c94415ec6cd448e4d7a9bd378ef5]
@startuml
skinparam classAttributeIconSize 0
hide methods
left to right direction

class Plataforma{
  -list touristList
  -list employeeList
  -list destinationList
}

class Tourist {
  -string emailId
  -string name
  -string nationality
  -string birthDate
}

class Employee {
  -long nifId
  -string name
  -string address
  -string email
  -long phoneNumber
}

class Destination {
  -int destinationId
  -string countryName
  -string cityName
  -list reportList
}

class Report {
  -int reportId
  -string creationDate
  -string infectionName
  -int infectedNum
  -string omsAdvice
}


Plataforma "1" - - "0...*" Tourist : has >
Plataforma "1" - - "1...*" Employee : has >
Plataforma "1" - - "1...*" Destination : has >

Destination "1" - - "0..*" Report : has >
@enduml

PlantUML version 1.2020.23beta3(Unknown compile time)
(GPL source distribution)
Java Runtime: Java(TM) SE Runtime Environment
JVM: Java HotSpot(TM) 64-Bit Server VM
Default Encoding: UTF-8
Language: en
Country: US
--></g></svg>